<?xml version="1.0" encoding="UTF-8" standalone="no"?>
<!DOCTYPE svg PUBLIC "-//W3C//DTD SVG 1.1//EN"
 "http://www.w3.org/Graphics/SVG/1.1/DTD/svg11.dtd">
<!-- Generated by graphviz version 2.47.0 (20210316.0004)
 -->
<!-- Title: dependencies Pages: 1 -->
<svg width="2526pt" height="284pt"
 viewBox="0.00 0.00 2526.00 284.00" xmlns="http://www.w3.org/2000/svg" xmlns:xlink="http://www.w3.org/1999/xlink">
<g id="graph0" class="graph" transform="scale(1 1) rotate(0) translate(4 280)">
<title>dependencies</title>
<polygon fill="white" stroke="transparent" points="-4,4 -4,-280 2522,-280 2522,4 -4,4"/>
<text text-anchor="start" x="1238.01" y="-42.4" font-family="sans-serif" font-weight="bold" font-size="14.00">Legend</text>
<polygon fill="#ffffb3" stroke="transparent" points="1025,-10 1025,-30 1045,-30 1045,-10 1025,-10"/>
<text text-anchor="start" x="1048.63" y="-15.4" font-family="sans-serif" font-size="14.00"> &#160;Declarations</text>
<polygon fill="#8dd3c7" stroke="transparent" points="1138,-10 1138,-30 1158,-30 1158,-10 1138,-10"/>
<text text-anchor="start" x="1161.73" y="-15.4" font-family="sans-serif" font-size="14.00"> &#160;Module</text>
<polygon fill="#80b1d3" stroke="transparent" points="1224,-10 1224,-30 1244,-30 1244,-10 1224,-10"/>
<text text-anchor="start" x="1247.78" y="-15.4" font-family="sans-serif" font-size="14.00"> &#160;Bootstrap</text>
<polygon fill="#fdb462" stroke="transparent" points="1321,-10 1321,-30 1341,-30 1341,-10 1321,-10"/>
<text text-anchor="start" x="1344.67" y="-15.4" font-family="sans-serif" font-size="14.00"> &#160;Providers</text>
<polygon fill="#fb8072" stroke="transparent" points="1417,-10 1417,-30 1437,-30 1437,-10 1417,-10"/>
<text text-anchor="start" x="1440.73" y="-15.4" font-family="sans-serif" font-size="14.00"> &#160;Exports</text>
<g id="clust1" class="cluster">
<title>cluster_AppModule</title>
<polygon fill="none" stroke="black" stroke-dasharray="1,5" points="8,-70 8,-268 2510,-268 2510,-70 8,-70"/>
</g>
<g id="clust2" class="cluster">
<title>cluster_AppModule_declarations</title>
<polygon fill="none" stroke="black" points="168,-78 168,-130 2502,-130 2502,-78 168,-78"/>
</g>
<g id="clust19" class="cluster">
<title>cluster_AppModule_imports</title>
<polygon fill="none" stroke="black" points="16,-78 16,-130 160,-130 160,-78 16,-78"/>
</g>
<g id="clust21" class="cluster">
<title>cluster_AppModule_bootstrap</title>
<polygon fill="none" stroke="black" points="1274,-208 1274,-260 1398,-260 1398,-208 1274,-208"/>
</g>
<!-- AlertasComponent -->
<g id="node1" class="node">
<title>AlertasComponent</title>
<polygon fill="#ffffb3" stroke="black" points="2493.75,-122 2372.25,-122 2372.25,-86 2493.75,-86 2493.75,-122"/>
<text text-anchor="middle" x="2433" y="-99.8" font-family="Times,serif" font-size="14.00">AlertasComponent</text>
</g>
<!-- AppModule -->
<g id="node17" class="node">
<title>AppModule</title>
<polygon fill="#8dd3c7" stroke="black" points="1377.66,-187 1374.66,-191 1353.66,-191 1350.66,-187 1294.34,-187 1294.34,-151 1377.66,-151 1377.66,-187"/>
<text text-anchor="middle" x="1336" y="-164.8" font-family="Times,serif" font-size="14.00">AppModule</text>
</g>
<!-- AlertasComponent&#45;&gt;AppModule -->
<g id="edge1" class="edge">
<title>AlertasComponent&#45;&gt;AppModule</title>
<path fill="none" stroke="black" d="M2433,-122.32C2433,-145.66 2433,-183 2433,-183 2433,-183 1387.66,-183 1387.66,-183"/>
<polygon fill="black" stroke="black" points="1387.66,-179.5 1377.66,-183 1387.66,-186.5 1387.66,-179.5"/>
</g>
<!-- AppComponent -->
<g id="node2" class="node">
<title>AppComponent</title>
<polygon fill="#ffffb3" stroke="black" points="2353.94,-122 2248.06,-122 2248.06,-86 2353.94,-86 2353.94,-122"/>
<text text-anchor="middle" x="2301" y="-99.8" font-family="Times,serif" font-size="14.00">AppComponent</text>
</g>
<!-- AppComponent&#45;&gt;AppModule -->
<g id="edge2" class="edge">
<title>AppComponent&#45;&gt;AppModule</title>
<path fill="none" stroke="black" d="M2301,-122.16C2301,-144.35 2301,-179 2301,-179 2301,-179 1387.77,-179 1387.77,-179"/>
<polygon fill="black" stroke="black" points="1387.77,-175.5 1377.77,-179 1387.77,-182.5 1387.77,-175.5"/>
</g>
<!-- CadastroComponent -->
<g id="node3" class="node">
<title>CadastroComponent</title>
<polygon fill="#ffffb3" stroke="black" points="2230.59,-122 2099.41,-122 2099.41,-86 2230.59,-86 2230.59,-122"/>
<text text-anchor="middle" x="2165" y="-99.8" font-family="Times,serif" font-size="14.00">CadastroComponent</text>
</g>
<!-- CadastroComponent&#45;&gt;AppModule -->
<g id="edge3" class="edge">
<title>CadastroComponent&#45;&gt;AppModule</title>
<path fill="none" stroke="black" d="M2165,-122.28C2165,-143.32 2165,-175 2165,-175 2165,-175 1387.68,-175 1387.68,-175"/>
<polygon fill="black" stroke="black" points="1387.68,-171.5 1377.68,-175 1387.68,-178.5 1387.68,-171.5"/>
</g>
<!-- ContatosComponent -->
<g id="node4" class="node">
<title>ContatosComponent</title>
<polygon fill="#ffffb3" stroke="black" points="2081.61,-122 1950.39,-122 1950.39,-86 2081.61,-86 2081.61,-122"/>
<text text-anchor="middle" x="2016" y="-99.8" font-family="Times,serif" font-size="14.00">ContatosComponent</text>
</g>
<!-- ContatosComponent&#45;&gt;AppModule -->
<g id="edge4" class="edge">
<title>ContatosComponent&#45;&gt;AppModule</title>
<path fill="none" stroke="black" d="M2016,-122.31C2016,-142.15 2016,-171 2016,-171 2016,-171 1387.77,-171 1387.77,-171"/>
<polygon fill="black" stroke="black" points="1387.77,-167.5 1377.77,-171 1387.77,-174.5 1387.77,-167.5"/>
</g>
<!-- FooterComponent -->
<g id="node5" class="node">
<title>FooterComponent</title>
<polygon fill="#ffffb3" stroke="black" points="1932.88,-122 1815.12,-122 1815.12,-86 1932.88,-86 1932.88,-122"/>
<text text-anchor="middle" x="1874" y="-99.8" font-family="Times,serif" font-size="14.00">FooterComponent</text>
</g>
<!-- FooterComponent&#45;&gt;AppModule -->
<g id="edge5" class="edge">
<title>FooterComponent&#45;&gt;AppModule</title>
<path fill="none" stroke="black" d="M1874,-122.22C1874,-140.83 1874,-167 1874,-167 1874,-167 1387.77,-167 1387.77,-167"/>
<polygon fill="black" stroke="black" points="1387.77,-163.5 1377.77,-167 1387.77,-170.5 1387.77,-163.5"/>
</g>
<!-- HomeComponent -->
<g id="node6" class="node">
<title>HomeComponent</title>
<polygon fill="#ffffb3" stroke="black" points="1796.55,-122 1681.45,-122 1681.45,-86 1796.55,-86 1796.55,-122"/>
<text text-anchor="middle" x="1739" y="-99.8" font-family="Times,serif" font-size="14.00">HomeComponent</text>
</g>
<!-- HomeComponent&#45;&gt;AppModule -->
<g id="edge6" class="edge">
<title>HomeComponent&#45;&gt;AppModule</title>
<path fill="none" stroke="black" d="M1739,-122.02C1739,-139.37 1739,-163 1739,-163 1739,-163 1387.99,-163 1387.99,-163"/>
<polygon fill="black" stroke="black" points="1387.99,-159.5 1377.99,-163 1387.99,-166.5 1387.99,-159.5"/>
</g>
<!-- InspireComponent -->
<g id="node7" class="node">
<title>InspireComponent</title>
<polygon fill="#ffffb3" stroke="black" points="1663.2,-122 1542.8,-122 1542.8,-86 1663.2,-86 1663.2,-122"/>
<text text-anchor="middle" x="1603" y="-99.8" font-family="Times,serif" font-size="14.00">InspireComponent</text>
</g>
<!-- InspireComponent&#45;&gt;AppModule -->
<g id="edge7" class="edge">
<title>InspireComponent&#45;&gt;AppModule</title>
<path fill="none" stroke="black" d="M1603,-122.01C1603,-138.05 1603,-159 1603,-159 1603,-159 1387.72,-159 1387.72,-159"/>
<polygon fill="black" stroke="black" points="1387.72,-155.5 1377.72,-159 1387.72,-162.5 1387.72,-155.5"/>
</g>
<!-- LoginComponent -->
<g id="node8" class="node">
<title>LoginComponent</title>
<polygon fill="#ffffb3" stroke="black" points="1525.28,-122 1410.72,-122 1410.72,-86 1525.28,-86 1525.28,-122"/>
<text text-anchor="middle" x="1468" y="-99.8" font-family="Times,serif" font-size="14.00">LoginComponent</text>
</g>
<!-- LoginComponent&#45;&gt;AppModule -->
<g id="edge8" class="edge">
<title>LoginComponent&#45;&gt;AppModule</title>
<path fill="none" stroke="black" d="M1468,-122.12C1468,-136.78 1468,-155 1468,-155 1468,-155 1387.77,-155 1387.77,-155"/>
<polygon fill="black" stroke="black" points="1387.77,-151.5 1377.77,-155 1387.77,-158.5 1387.77,-151.5"/>
</g>
<!-- MenuComponent -->
<g id="node9" class="node">
<title>MenuComponent</title>
<polygon fill="#ffffb3" stroke="black" points="1392.99,-122 1279.01,-122 1279.01,-86 1392.99,-86 1392.99,-122"/>
<text text-anchor="middle" x="1336" y="-99.8" font-family="Times,serif" font-size="14.00">MenuComponent</text>
</g>
<!-- MenuComponent&#45;&gt;AppModule -->
<g id="edge9" class="edge">
<title>MenuComponent&#45;&gt;AppModule</title>
<path fill="none" stroke="black" d="M1336,-122.11C1336,-122.11 1336,-140.99 1336,-140.99"/>
<polygon fill="black" stroke="black" points="1332.5,-140.99 1336,-150.99 1339.5,-140.99 1332.5,-140.99"/>
</g>
<!-- PostagemDeleteComponent -->
<g id="node10" class="node">
<title>PostagemDeleteComponent</title>
<polygon fill="#ffffb3" stroke="black" points="1261.3,-122 1088.7,-122 1088.7,-86 1261.3,-86 1261.3,-122"/>
<text text-anchor="middle" x="1175" y="-99.8" font-family="Times,serif" font-size="14.00">PostagemDeleteComponent</text>
</g>
<!-- PostagemDeleteComponent&#45;&gt;AppModule -->
<g id="edge10" class="edge">
<title>PostagemDeleteComponent&#45;&gt;AppModule</title>
<path fill="none" stroke="black" d="M1175,-122.12C1175,-136.78 1175,-155 1175,-155 1175,-155 1284.12,-155 1284.12,-155"/>
<polygon fill="black" stroke="black" points="1284.12,-158.5 1294.12,-155 1284.12,-151.5 1284.12,-158.5"/>
</g>
<!-- PostagemEditComponent -->
<g id="node11" class="node">
<title>PostagemEditComponent</title>
<polygon fill="#ffffb3" stroke="black" points="1070.6,-122 911.4,-122 911.4,-86 1070.6,-86 1070.6,-122"/>
<text text-anchor="middle" x="991" y="-99.8" font-family="Times,serif" font-size="14.00">PostagemEditComponent</text>
</g>
<!-- PostagemEditComponent&#45;&gt;AppModule -->
<g id="edge11" class="edge">
<title>PostagemEditComponent&#45;&gt;AppModule</title>
<path fill="none" stroke="black" d="M991,-122.01C991,-138.05 991,-159 991,-159 991,-159 1284.04,-159 1284.04,-159"/>
<polygon fill="black" stroke="black" points="1284.04,-162.5 1294.04,-159 1284.04,-155.5 1284.04,-162.5"/>
</g>
<!-- SobreComponent -->
<g id="node12" class="node">
<title>SobreComponent</title>
<polygon fill="#ffffb3" stroke="black" points="892.99,-122 779.01,-122 779.01,-86 892.99,-86 892.99,-122"/>
<text text-anchor="middle" x="836" y="-99.8" font-family="Times,serif" font-size="14.00">SobreComponent</text>
</g>
<!-- SobreComponent&#45;&gt;AppModule -->
<g id="edge12" class="edge">
<title>SobreComponent&#45;&gt;AppModule</title>
<path fill="none" stroke="black" d="M836,-122.02C836,-139.37 836,-163 836,-163 836,-163 1284.23,-163 1284.23,-163"/>
<polygon fill="black" stroke="black" points="1284.23,-166.5 1294.23,-163 1284.23,-159.5 1284.23,-166.5"/>
</g>
<!-- TemaComponent -->
<g id="node13" class="node">
<title>TemaComponent</title>
<polygon fill="#ffffb3" stroke="black" points="760.7,-122 647.3,-122 647.3,-86 760.7,-86 760.7,-122"/>
<text text-anchor="middle" x="704" y="-99.8" font-family="Times,serif" font-size="14.00">TemaComponent</text>
</g>
<!-- TemaComponent&#45;&gt;AppModule -->
<g id="edge13" class="edge">
<title>TemaComponent&#45;&gt;AppModule</title>
<path fill="none" stroke="black" d="M704,-122.22C704,-140.83 704,-167 704,-167 704,-167 1284.04,-167 1284.04,-167"/>
<polygon fill="black" stroke="black" points="1284.04,-170.5 1294.04,-167 1284.04,-163.5 1284.04,-170.5"/>
</g>
<!-- TemaDeleteComponent -->
<g id="node14" class="node">
<title>TemaDeleteComponent</title>
<polygon fill="#ffffb3" stroke="black" points="629.74,-122 480.26,-122 480.26,-86 629.74,-86 629.74,-122"/>
<text text-anchor="middle" x="555" y="-99.8" font-family="Times,serif" font-size="14.00">TemaDeleteComponent</text>
</g>
<!-- TemaDeleteComponent&#45;&gt;AppModule -->
<g id="edge14" class="edge">
<title>TemaDeleteComponent&#45;&gt;AppModule</title>
<path fill="none" stroke="black" d="M555,-122.31C555,-142.15 555,-171 555,-171 555,-171 1284.29,-171 1284.29,-171"/>
<polygon fill="black" stroke="black" points="1284.29,-174.5 1294.29,-171 1284.29,-167.5 1284.29,-174.5"/>
</g>
<!-- TemaEditComponent -->
<g id="node15" class="node">
<title>TemaEditComponent</title>
<polygon fill="#ffffb3" stroke="black" points="462.04,-122 325.96,-122 325.96,-86 462.04,-86 462.04,-122"/>
<text text-anchor="middle" x="394" y="-99.8" font-family="Times,serif" font-size="14.00">TemaEditComponent</text>
</g>
<!-- TemaEditComponent&#45;&gt;AppModule -->
<g id="edge15" class="edge">
<title>TemaEditComponent&#45;&gt;AppModule</title>
<path fill="none" stroke="black" d="M394,-122.28C394,-143.32 394,-175 394,-175 394,-175 1284.31,-175 1284.31,-175"/>
<polygon fill="black" stroke="black" points="1284.31,-178.5 1294.31,-175 1284.31,-171.5 1284.31,-178.5"/>
</g>
<!-- UserEditComponent -->
<g id="node16" class="node">
<title>UserEditComponent</title>
<polygon fill="#ffffb3" stroke="black" points="307.59,-122 176.41,-122 176.41,-86 307.59,-86 307.59,-122"/>
<text text-anchor="middle" x="242" y="-99.8" font-family="Times,serif" font-size="14.00">UserEditComponent</text>
</g>
<!-- UserEditComponent&#45;&gt;AppModule -->
<g id="edge16" class="edge">
<title>UserEditComponent&#45;&gt;AppModule</title>
<path fill="none" stroke="black" d="M242,-122.16C242,-144.35 242,-179 242,-179 242,-179 1284.12,-179 1284.12,-179"/>
<polygon fill="black" stroke="black" points="1284.12,-182.5 1294.12,-179 1284.12,-175.5 1284.12,-182.5"/>
</g>
<!-- AppComponent  -->
<g id="node19" class="node">
<title>AppComponent </title>
<polygon fill="#80b1d3" stroke="black" points="1390.44,-252 1281.56,-252 1281.56,-216 1390.44,-216 1390.44,-252"/>
<text text-anchor="middle" x="1336" y="-229.8" font-family="Times,serif" font-size="14.00">AppComponent </text>
</g>
<!-- AppModule&#45;&gt;AppComponent  -->
<g id="edge18" class="edge">
<title>AppModule&#45;&gt;AppComponent </title>
<path fill="none" stroke="black" stroke-dasharray="1,5" d="M1336,-187.11C1336,-187.11 1336,-205.99 1336,-205.99"/>
<polygon fill="black" stroke="black" points="1332.5,-205.99 1336,-215.99 1339.5,-205.99 1332.5,-205.99"/>
</g>
<!-- AppRoutingModule -->
<g id="node18" class="node">
<title>AppRoutingModule</title>
<polygon fill="#8dd3c7" stroke="black" points="152.27,-122 149.27,-126 128.27,-126 125.27,-122 23.73,-122 23.73,-86 152.27,-86 152.27,-122"/>
<text text-anchor="middle" x="88" y="-99.8" font-family="Times,serif" font-size="14.00">AppRoutingModule</text>
</g>
<!-- AppRoutingModule&#45;&gt;AppModule -->
<g id="edge17" class="edge">
<title>AppRoutingModule&#45;&gt;AppModule</title>
<path fill="none" stroke="black" d="M88,-122.32C88,-145.66 88,-183 88,-183 88,-183 1284.12,-183 1284.12,-183"/>
<polygon fill="black" stroke="black" points="1284.12,-186.5 1294.12,-183 1284.12,-179.5 1284.12,-186.5"/>
</g>
</g>
</svg>
